<svg id="visual" viewBox="0 0 900 450" width="900" height="450" xmlns="http://www.w3.org/2000/svg"
  xmlns:xlink="http://www.w3.org/1999/xlink" version="1.1">
  <rect x="0" y="0" width="900" height="450" fill="#001220"></rect>
  <path
    d="M0 273L18.8 277.2C37.7 281.3 75.3 289.7 112.8 287.2C150.3 284.7 187.7 271.3 225.2 269C262.7 266.7 300.3 275.3 337.8 280C375.3 284.7 412.7 285.3 450.2 285.2C487.7 285 525.3 284 562.8 279.7C600.3 275.3 637.7 267.7 675.2 264.5C712.7 261.3 750.3 262.7 787.8 261.5C825.3 260.3 862.7 256.7 881.3 254.8L900 253L900 0L881.3 0C862.7 0 825.3 0 787.8 0C750.3 0 712.7 0 675.2 0C637.7 0 600.3 0 562.8 0C525.3 0 487.7 0 450.2 0C412.7 0 375.3 0 337.8 0C300.3 0 262.7 0 225.2 0C187.7 0 150.3 0 112.8 0C75.3 0 37.7 0 18.8 0L0 0Z"
    fill="#fa9e69"></path>
  <path
    d="M0 241L18.8 238.2C37.7 235.3 75.3 229.7 112.8 224.3C150.3 219 187.7 214 225.2 220.3C262.7 226.7 300.3 244.3 337.8 248.7C375.3 253 412.7 244 450.2 242.2C487.7 240.3 525.3 245.7 562.8 246C600.3 246.3 637.7 241.7 675.2 243.7C712.7 245.7 750.3 254.3 787.8 255.2C825.3 256 862.7 249 881.3 245.5L900 242L900 0L881.3 0C862.7 0 825.3 0 787.8 0C750.3 0 712.7 0 675.2 0C637.7 0 600.3 0 562.8 0C525.3 0 487.7 0 450.2 0C412.7 0 375.3 0 337.8 0C300.3 0 262.7 0 225.2 0C187.7 0 150.3 0 112.8 0C75.3 0 37.7 0 18.8 0L0 0Z"
    fill="#f0925b"></path>
  <path
    d="M0 207L18.8 200.5C37.7 194 75.3 181 112.8 174.5C150.3 168 187.7 168 225.2 170.2C262.7 172.3 300.3 176.7 337.8 183.2C375.3 189.7 412.7 198.3 450.2 200C487.7 201.7 525.3 196.3 562.8 194.7C600.3 193 637.7 195 675.2 193.8C712.7 192.7 750.3 188.3 787.8 185.5C825.3 182.7 862.7 181.3 881.3 180.7L900 180L900 0L881.3 0C862.7 0 825.3 0 787.8 0C750.3 0 712.7 0 675.2 0C637.7 0 600.3 0 562.8 0C525.3 0 487.7 0 450.2 0C412.7 0 375.3 0 337.8 0C300.3 0 262.7 0 225.2 0C187.7 0 150.3 0 112.8 0C75.3 0 37.7 0 18.8 0L0 0Z"
    fill="#e6874e"></path>
  <path
    d="M0 166L18.8 161.8C37.7 157.7 75.3 149.3 112.8 145.2C150.3 141 187.7 141 225.2 140.2C262.7 139.3 300.3 137.7 337.8 138.3C375.3 139 412.7 142 450.2 142.3C487.7 142.7 525.3 140.3 562.8 139.5C600.3 138.7 637.7 139.3 675.2 136.2C712.7 133 750.3 126 787.8 124.2C825.3 122.3 862.7 125.7 881.3 127.3L900 129L900 0L881.3 0C862.7 0 825.3 0 787.8 0C750.3 0 712.7 0 675.2 0C637.7 0 600.3 0 562.8 0C525.3 0 487.7 0 450.2 0C412.7 0 375.3 0 337.8 0C300.3 0 262.7 0 225.2 0C187.7 0 150.3 0 112.8 0C75.3 0 37.7 0 18.8 0L0 0Z"
    fill="#dc7b40"></path>
  <path
    d="M0 97L18.8 96.8C37.7 96.7 75.3 96.3 112.8 95.3C150.3 94.3 187.7 92.7 225.2 90.2C262.7 87.7 300.3 84.3 337.8 88.8C375.3 93.3 412.7 105.7 450.2 110C487.7 114.3 525.3 110.7 562.8 109C600.3 107.3 637.7 107.7 675.2 107.3C712.7 107 750.3 106 787.8 104.5C825.3 103 862.7 101 881.3 100L900 99L900 0L881.3 0C862.7 0 825.3 0 787.8 0C750.3 0 712.7 0 675.2 0C637.7 0 600.3 0 562.8 0C525.3 0 487.7 0 450.2 0C412.7 0 375.3 0 337.8 0C300.3 0 262.7 0 225.2 0C187.7 0 150.3 0 112.8 0C75.3 0 37.7 0 18.8 0L0 0Z"
    fill="#d17032"></path>
  <path
    d="M0 68L18.8 68.2C37.7 68.3 75.3 68.7 112.8 64.7C150.3 60.7 187.7 52.3 225.2 52C262.7 51.7 300.3 59.3 337.8 63.7C375.3 68 412.7 69 450.2 65.5C487.7 62 525.3 54 562.8 48.7C600.3 43.3 637.7 40.7 675.2 43C712.7 45.3 750.3 52.7 787.8 55.5C825.3 58.3 862.7 56.7 881.3 55.8L900 55L900 0L881.3 0C862.7 0 825.3 0 787.8 0C750.3 0 712.7 0 675.2 0C637.7 0 600.3 0 562.8 0C525.3 0 487.7 0 450.2 0C412.7 0 375.3 0 337.8 0C300.3 0 262.7 0 225.2 0C187.7 0 150.3 0 112.8 0C75.3 0 37.7 0 18.8 0L0 0Z"
    fill="#c76424"></path>
</svg>