<svg id="visual" viewBox="0 0 900 600" width="900" height="600" xmlns="http://www.w3.org/2000/svg" xmlns:xlink="http://www.w3.org/1999/xlink" version="1.1"><path d="M0 409L21.5 399.2C43 389.3 86 369.7 128.8 371.8C171.7 374 214.3 398 257.2 402.2C300 406.3 343 390.7 385.8 380.2C428.7 369.7 471.3 364.3 514.2 362.2C557 360 600 361 642.8 365C685.7 369 728.3 376 771.2 374C814 372 857 361 878.5 355.5L900 350L900 601L878.5 601C857 601 814 601 771.2 601C728.3 601 685.7 601 642.8 601C600 601 557 601 514.2 601C471.3 601 428.7 601 385.8 601C343 601 300 601 257.2 601C214.3 601 171.7 601 128.8 601C86 601 43 601 21.5 601L0 601Z" fill="#faab69"></path><path d="M0 404L21.5 411.7C43 419.3 86 434.7 128.8 434.8C171.7 435 214.3 420 257.2 421.7C300 423.3 343 441.7 385.8 445.8C428.7 450 471.3 440 514.2 431C557 422 600 414 642.8 413.2C685.7 412.3 728.3 418.7 771.2 420.2C814 421.7 857 418.3 878.5 416.7L900 415L900 601L878.5 601C857 601 814 601 771.2 601C728.3 601 685.7 601 642.8 601C600 601 557 601 514.2 601C471.3 601 428.7 601 385.8 601C343 601 300 601 257.2 601C214.3 601 171.7 601 128.8 601C86 601 43 601 21.5 601L0 601Z" fill="#ee9957"></path><path d="M0 448L21.5 458.2C43 468.3 86 488.7 128.8 491.7C171.7 494.7 214.3 480.3 257.2 472.7C300 465 343 464 385.8 470.8C428.7 477.7 471.3 492.3 514.2 488.5C557 484.7 600 462.3 642.8 461.8C685.7 461.3 728.3 482.7 771.2 485.5C814 488.3 857 472.7 878.5 464.8L900 457L900 601L878.5 601C857 601 814 601 771.2 601C728.3 601 685.7 601 642.8 601C600 601 557 601 514.2 601C471.3 601 428.7 601 385.8 601C343 601 300 601 257.2 601C214.3 601 171.7 601 128.8 601C86 601 43 601 21.5 601L0 601Z" fill="#e18846"></path><path d="M0 491L21.5 499C43 507 86 523 128.8 530.5C171.7 538 214.3 537 257.2 536C300 535 343 534 385.8 530.8C428.7 527.7 471.3 522.3 514.2 518C557 513.7 600 510.3 642.8 507.5C685.7 504.7 728.3 502.3 771.2 506.8C814 511.3 857 522.7 878.5 528.3L900 534L900 601L878.5 601C857 601 814 601 771.2 601C728.3 601 685.7 601 642.8 601C600 601 557 601 514.2 601C471.3 601 428.7 601 385.8 601C343 601 300 601 257.2 601C214.3 601 171.7 601 128.8 601C86 601 43 601 21.5 601L0 601Z" fill="#d47635"></path><path d="M0 549L21.5 549.7C43 550.3 86 551.7 128.8 554.3C171.7 557 214.3 561 257.2 559.7C300 558.3 343 551.7 385.8 546.2C428.7 540.7 471.3 536.3 514.2 535.8C557 535.3 600 538.7 642.8 537.7C685.7 536.7 728.3 531.3 771.2 536.2C814 541 857 556 878.5 563.5L900 571L900 601L878.5 601C857 601 814 601 771.2 601C728.3 601 685.7 601 642.8 601C600 601 557 601 514.2 601C471.3 601 428.7 601 385.8 601C343 601 300 601 257.2 601C214.3 601 171.7 601 128.8 601C86 601 43 601 21.5 601L0 601Z" fill="#c76424"></path></svg>